# Exported from ProBuilder
# http://www.procore3d.com/probuilder
# 3/12/2018 6:19:19 AM

mtllib ./probuilder_wall_that_broke_the_game.mtl
o probuilder wall that broke the game

g Cube
v 6 10.58 -20.59
v 2.501297 10.58 -20.59
v 6 10.58 -20.79
v 2.501297 10.58 -20.79
v 6 7.08 -20.79
v 2.501297 7.08 -20.79
v 6 7.08 -20.59
v 2.501297 7.08 -20.59
v 2.996633 9.075974 -20.59
v 2.501297 10.58 -20.59
v 6 10.58 -20.59
v 6 9.075974 -20.59
v 2.996633 9.075974 -20.79
v 2.501297 10.58 -20.79
v 2.501297 10.58 -20.59
v 2.996633 9.075974 -20.59
v 6 9.075974 -20.79
v 6 10.58 -20.79
v 2.501297 10.58 -20.79
v 2.996633 9.075974 -20.79
v 6 9.075974 -20.59
v 6 10.58 -20.59
v 6 10.58 -20.79
v 6 9.075974 -20.79
v 6 7.08 -20.59
v 2.501297 7.08 -20.59
v 2.996633 8.077988 -20.59
v 6 8.077988 -20.59
v 2.996633 8.077988 -20.59
v 2.996633 9.075974 -20.59
v 6 9.075974 -20.59
v 6 8.077988 -20.59
v 2.501297 7.08 -20.59
v 2.501297 7.08 -20.79
v 2.996633 8.077988 -20.79
v 2.996633 8.077988 -20.59
v 2.996633 8.077988 -20.79
v 2.996633 9.075974 -20.79
v 2.996633 9.075974 -20.59
v 2.996633 8.077988 -20.59
v 6 7.08 -20.79
v 6 8.077988 -20.79
v 2.996633 8.077988 -20.79
v 2.501297 7.08 -20.79
v 6 8.077988 -20.79
v 6 9.075974 -20.79
v 2.996633 9.075974 -20.79
v 2.996633 8.077988 -20.79
v 6 9.075974 -20.59
v 6 9.075974 -20.79
v 6 8.077988 -20.79
v 6 8.077988 -20.59
v 6 8.077988 -20.79
v 6 7.08 -20.79
v 6 7.08 -20.59
v 6 8.077988 -20.59

vn 0 1 0
vn 0 1 0
vn 0 1 0
vn 0 1 0
vn 0 -1 0
vn 0 -1 0
vn 0 -1 0
vn 0 -1 0
vn 0 0 1
vn 0 0 1
vn 0 0 1
vn 0 0 1
vn -0.949815 -0.3128123 0
vn -0.949815 -0.3128123 0
vn -0.949815 -0.3128123 0
vn -0.949815 -0.3128123 0
vn 0 0 -1
vn 0 0 -1
vn 0 0 -1
vn 0 0 -1
vn 1 0 0
vn 1 0 0
vn 1 0 0
vn 1 0 0
vn 0 0 1
vn 0 0 1
vn 0 0 1
vn 0 0 1
vn 0 0 1
vn 0 0 1
vn 0 0 1
vn 0 0 1
vn -0.8957365 0.4445854 0
vn -0.8957365 0.4445854 0
vn -0.8957365 0.4445854 0
vn -0.8957365 0.4445854 0
vn -1 0 0
vn -1 0 0
vn -1 0 0
vn -1 0 0
vn 0 0 -1
vn 0 0 -1
vn 0 0 -1
vn 0 0 -1
vn 0 0 -1
vn 0 0 -1
vn 0 0 -1
vn 0 0 -1
vn 1 0 0
vn 1 0 0
vn 1 0 0
vn 1 0 0
vn 1 0 0
vn 1 0 0
vn 1 0 0
vn 1 0 0

vt 0 0
vt 3.498703 0
vt 0 -0.2
vt 3.498703 -0.2
vt 0 -0.2
vt -3.498703 -0.2
vt 0 0
vt -3.498703 0
vt -3.003367 1.995975
vt -3.498703 3.5
vt 0 3.5
vt 0 1.995975
vt -3.003367 1.995975
vt -3.498703 3.5
vt -3.498703 3.5
vt -3.003367 1.995975
vt 2.844111E-16 1.995975
vt 2.844111E-16 3.5
vt -3.498703 3.5
vt -3.003367 1.995975
vt 0 1.995975
vt 0 3.5
vt -0.2 3.5
vt -0.2 1.995975
vt 0 0
vt -3.498703 0
vt -3.003367 0.9979873
vt 0 0.9979873
vt -3.003367 0.9979873
vt -3.003367 1.995975
vt 0 1.995975
vt 0 0.9979873
vt -3.498703 -6.392433E-20
vt -3.498703 -3.915816E-11
vt -3.003367 0.9979873
vt -3.003367 0.9979873
vt -3.003367 0.9979873
vt -3.003367 1.995975
vt -3.003367 1.995975
vt -3.003367 0.9979873
vt 2.844111E-16 7.920953E-16
vt 2.844111E-16 0.9979873
vt -3.003367 0.9979873
vt -3.498703 7.920953E-16
vt 2.844111E-16 0.9979873
vt 2.844111E-16 1.995975
vt -3.003367 1.995975
vt -3.003367 0.9979873
vt 0 1.995975
vt -0.2 1.995975
vt -0.2 0.9979873
vt 0 0.9979873
vt -0.2 0.9979873
vt -0.2 0
vt 0 0
vt 0 0.9979873

g Cube
usemtl Default_Prototype
f 3/3/3 4/4/4 2/2/2 1/1/1
f 7/7/7 8/8/8 6/6/6 5/5/5
f 11/11/11 10/10/10 9/9/9 12/12/12
f 15/15/15 14/14/14 13/13/13 16/16/16
f 20/20/20 19/19/19 18/18/18 17/17/17
f 21/21/21 24/24/24 23/23/23 22/22/22
f 28/28/28 27/27/27 26/26/26 25/25/25
f 31/31/31 30/30/30 29/29/29 32/32/32
f 36/36/36 35/35/35 34/34/34 33/33/33
f 39/39/39 38/38/38 37/37/37 40/40/40
f 41/41/41 44/44/44 43/43/43 42/42/42
f 45/45/45 48/48/48 47/47/47 46/46/46
f 51/51/51 50/50/50 49/49/49 52/52/52
f 54/54/54 53/53/53 56/56/56 55/55/55

g Cube (2)
v -1.504274 10.58 -20.59
v -5 10.58 -20.59
v -1.504274 10.58 -20.79
v -5 10.58 -20.79
v -1.504274 7.08 -20.79
v -5 7.08 -20.79
v -1.504274 7.08 -20.59
v -5 7.08 -20.59
v -5 9.083219 -20.59
v -5 10.58 -20.59
v -1.504274 10.58 -20.59
v -1.995493 9.083219 -20.59
v -5 9.083219 -20.79
v -5 10.58 -20.79
v -5 10.58 -20.59
v -5 9.083219 -20.59
v -1.995493 9.083219 -20.79
v -1.504274 10.58 -20.79
v -5 10.58 -20.79
v -5 9.083219 -20.79
v -1.995493 9.083219 -20.59
v -1.504274 10.58 -20.59
v -1.504274 10.58 -20.79
v -1.995493 9.083219 -20.79
v -1.504274 7.08 -20.59
v -5 7.08 -20.59
v -5 8.08161 -20.59
v -1.995493 8.08161 -20.59
v -5 8.08161 -20.59
v -5 9.083219 -20.59
v -1.995493 9.083219 -20.59
v -1.995493 8.08161 -20.59
v -5 7.08 -20.59
v -5 7.08 -20.79
v -5 8.08161 -20.79
v -5 8.08161 -20.59
v -5 8.08161 -20.79
v -5 9.083219 -20.79
v -5 9.083219 -20.59
v -5 8.08161 -20.59
v -1.504274 7.08 -20.79
v -1.995493 8.08161 -20.79
v -5 8.08161 -20.79
v -5 7.08 -20.79
v -1.995493 8.08161 -20.79
v -1.995493 9.083219 -20.79
v -5 9.083219 -20.79
v -5 8.08161 -20.79
v -1.995493 9.083219 -20.59
v -1.995493 9.083219 -20.79
v -1.995493 8.08161 -20.79
v -1.995493 8.08161 -20.59
v -1.995493 8.08161 -20.79
v -1.504274 7.08 -20.79
v -1.504274 7.08 -20.59
v -1.995493 8.08161 -20.59

vn 0 0.9999999 0
vn 0 0.9999999 0
vn 0 0.9999999 0
vn 0 0.9999999 0
vn 0 -0.9999999 0
vn 0 -0.9999999 0
vn 0 -0.9999999 0
vn 0 -0.9999999 0
vn 0 0 1
vn 0 0 1
vn 0 0 0.9999999
vn 0 0 1
vn -1 0 0
vn -1 0 0
vn -1 0 0
vn -1 0 0
vn 0 0 -1
vn 0 0 -0.9999999
vn 0 0 -1
vn 0 0 -1
vn 0.9501411 -0.3118204 0
vn 0.9501411 -0.3118204 0
vn 0.9501411 -0.3118204 0
vn 0.9501411 -0.3118204 0
vn 0 0 1
vn 0 0 1
vn 0 0 1
vn 0 0 1
vn 0 0 1
vn 0 0 1
vn 0 0 1
vn 0 0 1
vn -1 0 0
vn -1 0 0
vn -1 0 0
vn -1 0 0
vn -1 0 0
vn -1 0 0
vn -1 0 0
vn -1 0 0
vn 0 0 -1
vn 0 0 -1
vn 0 0 -1
vn 0 0 -1
vn 0 0 -1
vn 0 0 -1
vn 0 0 -1
vn 0 0 -1
vn 1 0 0
vn 1 0 0
vn 1 0 0
vn 1 0 0
vn 0.8978379 0.4403261 0
vn 0.8978379 0.4403261 0
vn 0.8978379 0.4403261 0
vn 0.8978379 0.4403261 0

vt -1.495726 0
vt 2 0
vt -1.495726 -0.2
vt 2 -0.2
vt 1.495726 -0.2
vt -2 -0.2
vt 1.495726 0
vt -2 0
vt -2 2.003219
vt -2 3.5
vt 1.495726 3.5
vt 1.004507 2.003219
vt -0.2 2.003219
vt -0.2 3.5
vt 0 3.5
vt 0 2.003219
vt 1.004507 2.003219
vt 1.495726 3.5
vt -2 3.5
vt -2 2.003219
vt 1.004507 2.003219
vt 1.495726 3.5
vt 1.495726 3.5
vt 1.004507 2.003219
vt 1.495726 0
vt -2 0
vt -2 1.001609
vt 1.004507 1.001609
vt -2 1.001609
vt -2 2.003219
vt 1.004507 2.003219
vt 1.004507 1.001609
vt 0 0
vt -0.2 0
vt -0.2 1.001609
vt 0 1.001609
vt -0.2 1.001609
vt -0.2 2.003219
vt 0 2.003219
vt 0 1.001609
vt 1.495726 7.900247E-16
vt 1.004507 1.001609
vt -2 1.001609
vt -2 7.900247E-16
vt 1.004507 1.001609
vt 1.004507 2.003219
vt -2 2.003219
vt -2 1.001609
vt 1.004507 2.003219
vt 1.004507 2.003219
vt 1.004507 1.001609
vt 1.004507 1.001609
vt 1.004507 1.001609
vt 1.495726 1.253847E-10
vt 1.495726 -1.500606E-18
vt 1.004507 1.001609

g Cube (2)
usemtl Default_Prototype
f 59/59/59 60/60/60 58/58/58 57/57/57
f 63/63/63 64/64/64 62/62/62 61/61/61
f 67/67/67 66/66/66 65/65/65 68/68/68
f 71/71/71 70/70/70 69/69/69 72/72/72
f 76/76/76 75/75/75 74/74/74 73/73/73
f 77/77/77 80/80/80 79/79/79 78/78/78
f 84/84/84 83/83/83 82/82/82 81/81/81
f 87/87/87 86/86/86 85/85/85 88/88/88
f 92/92/92 91/91/91 90/90/90 89/89/89
f 95/95/95 94/94/94 93/93/93 96/96/96
f 100/100/100 99/99/99 98/98/98 97/97/97
f 104/104/104 103/103/103 102/102/102 101/101/101
f 107/107/107 106/106/106 105/105/105 108/108/108
f 110/110/110 109/109/109 112/112/112 111/111/111

